<?xml version="1.0" encoding="utf-8"?>
<svg version="1.1" xmlns="http://www.w3.org/2000/svg" xmlns:xlink="http://www.w3.org/1999/xlink"
	 width="50px" height="1000px" viewBox="10 0 50 1000" style="enable-background:new 0 0 50 1000;" xml:space="preserve">
<style type="text/css">
	.st0{fill:#fff;}
</style>
<path class="st0" d="M27,304.5h-4.2v3h4.5L27,304.5 M27.2,309.7h-4.8l-0.2,3.7h5V309.7 M27.5,316h-5l-0.2,4.1h5.5L27.5,316
	 M27.8,323.1H22l-0.2,5h6V323.1 M28,332h-6.2l-0.3,6h6.8L28,332 M28.5,342.8h-7l-0.2,7.8h7.2V342.8 M29,356.1h-8l-0.3,9.9h8.5
	L29,356.1 M29.2,373.6h-8.8L20,386.8h9.8L29.2,373.6 M30.2,396.9H19.8L19,415.3h11.7L30.2,396.9 M31.2,430.2H18.8l-1,27.4h14.5
	L31.2,430.2 M33,480.7H17L15.5,526h19L33,480.7 M35.8,567.1H14.2l-3,89.2h27.5L35.8,567.1 M41.8,748.5H8.2L0,1000h50L41.8,748.5
	 M27,300h-4v2.6h4.2L27,300"/>
</svg>
