<?xml version="1.0" encoding="utf-8"?>
<!-- Generator: Adobe Illustrator 22.0.1, SVG Export Plug-In . SVG Version: 6.00 Build 0)  -->
<svg version="1.1" xmlns="http://www.w3.org/2000/svg" xmlns:xlink="http://www.w3.org/1999/xlink" x="0px" y="0px"
	 width="1029.4px" height="531px" viewBox="0 0 1029.4 531" style="enable-background:new 0 0 1029.4 531;" xml:space="preserve">
<style type="text/css">
	.st0{display:none;}
	.st1{fill:none;stroke:#000000;stroke-width:0.3541;}
	.st2{fill:none;stroke:#000000;}
</style>
<g id="Warstwa_1" class="st0">
	
		<image style="display:inline;overflow:visible;" width="582" height="376" xlink:href="EC042318DCCE0E6C.png"  transform="matrix(1 0 0 1 41.0177 155.3786)">
	</image>
</g>
<g id="Warstwa_2">
	<path class="st1" d="M0,214.7"/>
	<line class="st2" x1="0" y1="394.2" x2="600" y2="394.2"/>
	<line class="st2" x1="0" y1="214.7" x2="1029.4" y2="214.7"/>
	<line class="st2" x1="0" y1="157" x2="1029.4" y2="157"/>
	<line class="st2" x1="0" y1="291.6" x2="1029.4" y2="291.6"/>
	<line class="st2" x1="0" y1="394.2" x2="1029.4" y2="394.2"/>
	<line class="st2" x1="525.1" y1="530.9" x2="0" y2="530.9"/>
	<line class="st2" x1="0" y1="113.3" x2="1029.4" y2="113.3"/>
	<line class="st2" x1="0" y1="55.7" x2="1029.4" y2="55.7"/>
	<line class="st2" x1="0" y1="37.2" x2="1029.4" y2="37.2"/>
	<line class="st2" x1="0" y1="80.4" x2="1029.4" y2="80.4"/>
	<line class="st2" x1="0" y1="113.3" x2="1029.4" y2="113.3"/>
	<line class="st2" x1="0" y1="23.8" x2="60.1" y2="23.8"/>
	<line class="st2" x1="0" y1="5.8" x2="1029.4" y2="5.8"/>
	<line class="st2" x1="0" y1="0" x2="1029.4" y2="0"/>
	<line class="st2" x1="0" y1="13.5" x2="1029.4" y2="13.5"/>
	<line class="st2" x1="0" y1="23.8" x2="1029.4" y2="23.8"/>
</g>
</svg>
