<?xml version="1.0" encoding="utf-8"?>
<svg version="1.1" xmlns="http://www.w3.org/2000/svg" xmlns:xlink="http://www.w3.org/1999/xlink" x="0px" y="0px"
	 width="113.1px" height="342.7px" viewBox="0 0 113.1 342.7" style="enable-background:new 0 0 113.1 342.7;" xml:space="preserve" >
<style type="text/css">
	.st0{fill:#FFFFFF;}
</style>
<path d="M0,342.7v-19.2l12.1,0.5L0,342.7z"/>
<polygon class="st0" points="5.4,328.1 4.6,326 6.9,325.4 2.1,325.6 0.6,341.4 6.4,329.6 "/>
<path class="st0" d="M66.4,78.4c-0.2,0.9-16.4,53.5-29.5,95.7c-0.3-0.1-11.6,36.4-11.3,36.5c-2.9,9.4-4.8,15.4-4.9,15.6 C14.9,244.3,9,262.5,3.1,280.7c-1,3.1-2.5,6.2-2.6,9.3c-0.3,10.2-0.4,20.5-0.5,30.7c4.6,0,9.1,0.1,13.6,0.6c3.7-6.5,7.4-13,11-19.6 c3.3-6.1,6.4-12.3,8.6-18.8c3-8.7,4.9-17.7,7.4-26.5c9.8-34,19.3-68.1,29.6-102c10.2-33.6,21.3-67,32.2-100.4c1-3,3.1-5.7,4.4-8.7 c1-2.4,1.8-4.9,2.3-7.4c0.4-1.9-0.1-3.9,0.2-5.8c1-6.5,2-13.1,3.3-19.6c1.1-5.1-1.1-8.2-5.4-10.1c-2.7-1.2-5.7-2.1-8.7-2.3 C93-0.4,90.5,1.3,88.2,6.4C84,15.9,80,25.4,76,35c-0.4,1-1,2.7-0.5,3.3C78.8,42,76.8,46,75.8,50c0,0,0,0,0,0 C72.7,59.3,69.7,68.6,66.4,78.4"/>
<path d="M107.4,2.4C91.8-4.8,88.3,6.3,83,18.6c-2.1,5-6.9,11.9-7.2,17.2c-0.3,5.3,1.6,8.1,0.1,14.1c0,0,0,0,0,0 c-3.1,9.3-6.1,18.6-9.4,28.4c3.9-6.5,7.4-12.3,10.7-17.9c-1.8,2.6-3.3,3-4.6,1.2c2.6-2.9,5.2-5.8,7.7-8.8 c3.6,2.3-10.4,33.4-12.1,38.6c-4.3,13.4-8.2,27.1-12.1,40.7c2.8,0.5,17.2-49.4,19.1-55.2c3.5-10.8,7.1-21.5,10.6-32.3 c1.4-4.3,1.2-9.6,6.1-8.7c3,0.6,3.5,1.7,4.4,4.2c2,5.7-4.5,19.1-6.2,24.4c-3,9.9-6.8,19.5-10.1,29.3c-6.9,20.6-14.8,41.2-19.9,62.4 c2,0.4,0.9-2.7,3.5-0.9c0.1-3.9,0.3-8.2,0.4-13.2c1.3,0.7,2.7,1.5,4,2.2c0.5-3.8-0.4-11.8,4.1-10.8c1.4-3.4-4.3-5.3,0.6-8.2 c6.8,5.2-6.8,32.7-9,39.5l0.1-0.1c-4.5,14.1-9,28.2-13.6,42.5c-1.3-1.2-2.2-2.1-3.5-3.3c1.8,8.9,1.5,12.8-1.4,21.5 c-2-0.3-3-5-3.7-6.5c-2.3,8.1-4.2,15.2-6.1,22.2c1.3-3.2,2.5-6.4,3.8-9.6c6,5.4,2.2,13.3-0.6,19.4c-3.9-1.9-3.3-5.4-3.3-9.3 c-4,6.6,0.7,7.1,1.6,13.7c0.4,2.8-1.7,12.5-4.8,12.8c-1-4.1-2-8.3-3-12.4c-2,12.2-6.1,22.2-17.3,28.9c4-22.9,14.4-44.1,18.8-66.5 c-2.3,6.3-20.2,70.1-24.7,69.3c-5-0.9,3.5-20.8,4.8-24.8c4-11.8,7.5-23.9,11-35.9c4-13.3,7.8-26.6,11.9-39.8 c2.4-8.1,32.7-108.6,32.7-108.6c-6,30.2-18.6,60.5-27.7,89.9C32.3,189.1,26,210,19.4,230.7c-7,21.7-18.5,45.1-19,68 c-0.1,5.4-1.3,12.2-0.2,17.6c0.8,4.3-1.3,2.6,2.2,4.4c1.6,0.8,7.3,0.9,9.1,0.4c7.2-2.2,14.5-21.2,18-28.7 c10.1-22,14.6-47.6,21.2-70.9c6.8-24,13.7-48,21.1-71.8c8.4-27.5,17.4-54.8,26.3-82.1c3.3-10.2,9.6-20.7,11.2-31.2 C110.7,27.6,118,7.2,107.4,2.4z M21.9,298.8c-1.2-0.7-2.2-1.3-3.7-2.2c1.4,2.2,4.2,8.5-1.2,5.2c-0.1,1.8-0.2,3.8-0.3,6.6 c-1.2-1-2.5-1.9-3.7-2.9c-0.8,0.8,2.1,4.5,2.5,5c-2-0.1-4.1-0.2-6.1-0.3c0,3-0.1,6-0.1,9c-2.4-2.5-3.5-1.8-5.8,0.4 c-2.5-4.7,0.1-9.3,0.5-14.1c0.3-3.7-1.6-11.4-0.2-14.3c1.6-3.2,5.7-3.2,8.9-5.2c2.1-1.4,6.4-7.7,8.4-7.3c-0.2,2.4-2.7,12.6-1,14.5 c3.4,3.8,4.6-2,5.1-4.2C28.3,294.4,23.5,295.9,21.9,298.8z M27.2,285.2c-0.6-3-1.3-6.1-1.9-9.1c1.5-1,2.5-0.2,3.1,2.3 c0.3-0.2,0.6-0.4,1-0.7c-3.3-4.6-2.2-7.9-0.4-12.8C34.2,271.6,33.8,275.8,27.2,285.2z M43.7,233c-1.9-2.5-5.1-6.3-1.6-8.8 C42.3,224,47.2,232,43.7,233z M94.3,2.8c3.6-0.8,15.8-2.2,12.5,5.3c-1.6,3.6-8.7,2.4-11.4,1.5c-4.1,1.2-5.8,0.1-5-3.4 C91,4.3,92.3,3.1,94.3,2.8z M76,55.3c-0.1-6.8,3.4-8.7,8.2-13.4C84.4,48.6,80.9,52.6,76,55.3z M80.7,32.4c3-3.4,17.7-7.2,17.6,0.9 C92.4,33,86.5,32.7,80.7,32.4z M76.5,124.7c-2.7-1.9-4.5-8.1,0.5-8.1C76.8,119.3,76.6,122,76.5,124.7z M79.6,101.3 c0.5-0.1,1.1-0.2,1.6-0.3c0.4,2.3,0.7,4.5,1.1,6.8C77.7,106.6,78.6,104,79.6,101.3z M84.2,101.1c-3.4-2.4-4.5-12.6,1.3-11.5 C85.1,93.4,84.6,97.3,84.2,101.1z M87.2,89.1c-2.6-2.8-3.3-5.7-0.8-9.1C89.9,82.2,90.1,83.8,87.2,89.1z M88.6,78.9 c-1.3-5.4-0.3-6.7,2.5-11.6C95.2,70.8,92,76.5,88.6,78.9z M93,66.6c0.4-1.9-1.5-10.1,1.7-8.8C98.4,59.2,95.8,66.3,93,66.6z M95,56.6 c0.9-3.3,1.8-6.2,2.6-9.1C100.6,51,100.9,54.1,95,56.6z M103.5,27.6c-0.3-1.2-0.5-2.2-0.9-3.8c-1.3,1.9-2.3,3.2-3.8,5.4 c0.1-1.9,0.1-2.8,0.2-4.2c-1.1,1.2-1.8,2-2.8,3.2c-2-5.8-11.8,2-15.1-2.2c2.1-2.4,4.1-4.7,6.2-7.1c-4-1.3,0.3-6.2,2.7-7.3 c5.5-2.6,10.3,1.5,13.9,5c-3.7,0.3-3.7-0.6-4,3.6c-0.9-0.2-5.7-1.7-6.1-0.5C97.2,20.9,107.4,22,103.5,27.6z M107.7,22.7 c-1.8-1.6-4.3-5.9,0-6.7C108,17.8,109.7,22.1,107.7,22.7z"/>
</svg>