<?xml version="1.0" encoding="utf-8"?>
<!-- Generator: Adobe Illustrator 22.0.1, SVG Export Plug-In . SVG Version: 6.00 Build 0)  -->
<svg version="1.1" id="Warstwa_1" xmlns="http://www.w3.org/2000/svg" xmlns:xlink="http://www.w3.org/1999/xlink" x="0px" y="0px"
	 width="92.9px" height="60.1px" viewBox="0 0 92.9 60.1" style="enable-background:new 0 0 92.9 60.1;" xml:space="preserve">
<style type="text/css">
	.st0{fill:none;stroke:#FFFFFF;stroke-width:0.5;stroke-miterlimit:10;}
	.st1{fill:none;stroke:#FFFFFF;stroke-width:0.5;stroke-miterlimit:10;stroke-dasharray:3.0695,2.0463;}
	.st2{fill:none;stroke:#FFFFFF;stroke-width:0.5;stroke-miterlimit:10;stroke-dasharray:2.8548,1.9032;}
	.st3{fill:none;stroke:#FFFFFF;stroke-width:0.5;stroke-miterlimit:10;stroke-dasharray:2.6907,1.7938;}
	.st4{fill:none;stroke:#FFFFFF;stroke-width:0.5;stroke-miterlimit:10;stroke-dasharray:3.0514,2.0342;}
	.st5{fill:none;stroke:#FFFFFF;stroke-width:0.5;stroke-miterlimit:10;stroke-dasharray:3.1575,2.105;}
	.st6{fill:none;stroke:#FFFFFF;stroke-width:0.5;stroke-miterlimit:10;stroke-dasharray:2.8728,1.9152;}
	.st7{fill:none;stroke:#FFFFFF;stroke-width:0.5;stroke-miterlimit:10;stroke-dasharray:2.8977,1.9318;}
	.st8{fill:none;stroke:#FFFFFF;stroke-width:0.5;stroke-miterlimit:10;stroke-dasharray:3.0284,2.0189;}
	.st9{fill:none;stroke:#FFFFFF;stroke-width:0.5;stroke-miterlimit:10;stroke-dasharray:3.0324,2.0216;}
	.st10{fill:none;stroke:#FFFFFF;stroke-width:0.5;stroke-miterlimit:10;stroke-dasharray:3,2;}
	.st11{fill:none;stroke:#FFFFFF;stroke-width:0.5;stroke-miterlimit:10;stroke-dasharray:2.5624,1.7083;}
	.st12{fill:none;stroke:#FFFFFF;stroke-width:0.5;stroke-miterlimit:10;stroke-dasharray:2.541,1.694;}
</style>
<g>
	<polygon points="52,51.9 71.2,59.9 74.9,60 92.9,7.9 70,0 	"/>
	<g>
		<g>
			<line class="st0" x1="90.1" y1="7" x2="89.6" y2="8.4"/>
			<line class="st1" x1="88.9" y1="10.3" x2="72.5" y2="57.7"/>
			<line class="st0" x1="72.2" y1="58.6" x2="71.7" y2="60.1"/>
		</g>
	</g>
	<polygon points="54.1,59.7 71.2,59.9 57,6.8 40,6.9 	"/>
	<g>
		<g>
			<line class="st0" x1="53.9" y1="6.8" x2="54.3" y2="8.3"/>
			<line class="st2" x1="54.8" y1="10.1" x2="60.6" y2="32.2"/>
			<line class="st0" x1="60.8" y1="33.1" x2="61.2" y2="34.6"/>
		</g>
	</g>
	<g>
		<g>
			<line class="st0" x1="76" y1="56.8" x2="74.5" y2="56.8"/>
			<line class="st3" x1="72.7" y1="56.8" x2="55.7" y2="56.6"/>
			<line class="st0" x1="54.8" y1="56.6" x2="53.3" y2="56.6"/>
		</g>
	</g>
	<g>
		<g>
			<line class="st0" x1="72.8" y1="1" x2="72.3" y2="2.4"/>
			<line class="st4" x1="71.7" y1="4.3" x2="62" y2="32.2"/>
			<line class="st0" x1="61.7" y1="33.2" x2="61.2" y2="34.6"/>
		</g>
	</g>
	<g>
		<g>
			<line class="st0" x1="61.2" y1="34.6" x2="60.8" y2="36"/>
			<line class="st5" x1="60.2" y1="38" x2="54.8" y2="57.3"/>
			<line class="st0" x1="54.5" y1="58.3" x2="54.1" y2="59.7"/>
		</g>
	</g>
	<g>
		<g>
			<line class="st0" x1="74.9" y1="60" x2="74.2" y2="58.7"/>
			<line class="st6" x1="73.3" y1="57" x2="62.4" y2="36.7"/>
			<line class="st0" x1="61.9" y1="35.9" x2="61.2" y2="34.6"/>
		</g>
	</g>
	<g>
		<g>
			<line class="st0" x1="91.9" y1="10.8" x2="90.5" y2="10.3"/>
			<line class="st7" x1="88.7" y1="9.6" x2="71.3" y2="3.6"/>
			<line class="st0" x1="70.4" y1="3.3" x2="69" y2="2.8"/>
		</g>
	</g>
	<polygon points="40.9,51.9 21.7,59.9 18,60 0,7.9 22.9,0 	"/>
	<g>
		<g>
			<line class="st0" x1="2.8" y1="7" x2="3.3" y2="8.4"/>
			<line class="st1" x1="4" y1="10.3" x2="20.4" y2="57.7"/>
			<line class="st0" x1="20.7" y1="58.6" x2="21.2" y2="60.1"/>
		</g>
	</g>
	<polygon points="38.8,59.7 21.7,59.9 35.9,6.8 52.9,6.9 	"/>
	<g>
		<g>
			<line class="st0" x1="46.4" y1="20.7" x2="46" y2="22.2"/>
			<line class="st8" x1="45.5" y1="24.1" x2="36.9" y2="57.3"/>
			<line class="st0" x1="36.7" y1="58.3" x2="36.3" y2="59.8"/>
		</g>
	</g>
	<g>
		<g>
			<line class="st0" x1="39" y1="6.8" x2="38.6" y2="8.3"/>
			<line class="st2" x1="38.1" y1="10.1" x2="32.3" y2="32.2"/>
			<line class="st0" x1="32.1" y1="33.1" x2="31.7" y2="34.6"/>
		</g>
	</g>
	<g>
		<g>
			<line class="st0" x1="16.9" y1="56.8" x2="18.4" y2="56.8"/>
			<line class="st3" x1="20.2" y1="56.8" x2="37.3" y2="56.6"/>
			<line class="st0" x1="38.2" y1="56.6" x2="39.7" y2="56.6"/>
		</g>
	</g>
	<g>
		<g>
			<line class="st0" x1="20.1" y1="1" x2="20.6" y2="2.4"/>
			<line class="st4" x1="21.2" y1="4.3" x2="30.9" y2="32.2"/>
			<line class="st0" x1="31.2" y1="33.2" x2="31.7" y2="34.6"/>
		</g>
	</g>
	<g>
		<g>
			<line class="st0" x1="31.7" y1="34.6" x2="32.1" y2="36"/>
			<line class="st5" x1="32.7" y1="38" x2="38.1" y2="57.3"/>
			<line class="st0" x1="38.4" y1="58.3" x2="38.8" y2="59.7"/>
		</g>
	</g>
	<g>
		<g>
			<line class="st0" x1="18" y1="60" x2="18.7" y2="58.7"/>
			<line class="st6" x1="19.6" y1="57" x2="30.5" y2="36.7"/>
			<line class="st0" x1="31" y1="35.9" x2="31.7" y2="34.6"/>
		</g>
	</g>
	<g>
		<g>
			<line class="st0" x1="1" y1="10.8" x2="2.4" y2="10.3"/>
			<line class="st7" x1="4.2" y1="9.6" x2="21.6" y2="3.6"/>
			<line class="st0" x1="22.5" y1="3.3" x2="23.9" y2="2.8"/>
		</g>
	</g>
	<g>
		<g>
			<line class="st0" x1="46.4" y1="20.7" x2="46.7" y2="22.1"/>
			<line class="st9" x1="47.3" y1="24.1" x2="56" y2="57.3"/>
			<line class="st0" x1="56.2" y1="58.3" x2="56.6" y2="59.8"/>
		</g>
	</g>
	<line class="st10" x1="57.8" y1="9.8" x2="35.1" y2="9.8"/>
	<g>
		<g>
			<line class="st0" x1="46.4" y1="20.7" x2="47.3" y2="19.5"/>
			<line class="st11" x1="48.3" y1="18.2" x2="55.6" y2="8.7"/>
			<line class="st0" x1="56.1" y1="8" x2="57" y2="6.8"/>
		</g>
	</g>
	<g>
		<g>
			<line class="st0" x1="46.4" y1="20.7" x2="45.5" y2="19.5"/>
			<line class="st12" x1="44.4" y1="18.1" x2="37.3" y2="8.7"/>
			<line class="st0" x1="36.8" y1="8" x2="35.9" y2="6.8"/>
		</g>
	</g>
</g>
</svg>
